<svg xmlns="http://www.w3.org/2000/svg" id="SvgjsSvg829364" width="4096" height="1378.8629313236047" version="1.1" xmlns:xlink="http://www.w3.org/1999/xlink" xmlns:svgjs="http://svgjs.com/svgjs"><defs id="SvgjsDefs829365"></defs><g id="SvgjsG829366" transform="translate(328, 328.00000000000006) scale(34.4)" opacity="1"><defs id="SvgjsDefs192950"></defs><g id="SvgjsG192951" transform="scale(0.21645021645021645)" opacity="1"><g id="SvgjsG192952" class="text" transform="translate(119.85, 81.74067464674) scale(1)" light-content="false" fill="#ffffff"><path d="M-105.13 -31.11C-102.72 -31.11 -99.89 -30.21 -96.63 -28.41L-93.83 -34.06C-95.6 -35.21 -97.41 -36.11 -99.28 -36.73C-101.15 -37.36 -103.47 -37.67 -106.25 -37.67C-109.78 -37.51 -112.61 -36.44 -114.73 -34.47C-116.85 -32.5 -117.91 -29.9 -117.91 -26.68C-117.91 -24.47 -117.39 -22.64 -116.36 -21.18C-115.32 -19.72 -114.09 -18.6 -112.67 -17.82C-111.24 -17.04 -109.46 -16.22 -107.32 -15.38C-103.69 -13.95 -101.88 -12.27 -101.88 -10.34C-101.88 -8.84 -102.45 -7.76 -103.61 -7.1C-104.76 -6.44 -106.12 -6.11 -107.68 -6.11C-109 -6.11 -110.5 -6.41 -112.16 -7.03C-113.82 -7.64 -115.3 -8.42 -116.59 -9.37L-119.85 -3.61C-117.95 -2.26 -115.89 -1.25 -113.69 -0.59C-111.48 0.08 -109.26 0.41 -107.02 0.41C-104.34 0.41 -102.03 -0.08 -100.09 -1.04C-98.16 -2.01 -96.69 -3.32 -95.69 -4.96C-94.69 -6.61 -94.19 -8.4 -94.19 -10.34C-94.19 -12.58 -94.6 -14.43 -95.43 -15.88C-96.27 -17.34 -97.31 -18.49 -98.57 -19.32C-99.82 -20.15 -101.33 -20.89 -103.1 -21.54C-105.27 -22.35 -107.01 -23.21 -108.32 -24.11C-109.62 -25.01 -110.28 -26.05 -110.28 -27.24C-110.28 -28.53 -109.83 -29.5 -108.93 -30.14C-108.03 -30.78 -106.76 -31.11 -105.13 -31.11Z M-81.59 -28.21C-83.3 -25.25 -84.16 -22.08 -84.16 -18.68C-84.16 -15.22 -83.3 -12.03 -81.59 -9.11C-79.87 -6.19 -77.56 -3.88 -74.64 -2.16C-71.72 -0.45 -68.53 0.41 -65.07 0.41C-61.64 0.41 -58.46 -0.45 -55.52 -2.16C-52.58 -3.88 -50.24 -6.19 -48.49 -9.11C-46.75 -12.03 -45.87 -15.22 -45.87 -18.68C-45.87 -22.08 -46.75 -25.25 -48.49 -28.21C-50.24 -31.16 -52.58 -33.51 -55.52 -35.26C-58.46 -37 -61.64 -37.88 -65.07 -37.88C-68.49 -37.88 -71.68 -37 -74.61 -35.26C-77.55 -33.51 -79.87 -31.16 -81.59 -28.21ZM-74.97 -12.68C-76 -14.51 -76.52 -16.51 -76.52 -18.68C-76.52 -20.92 -76.01 -22.96 -74.99 -24.79C-73.98 -26.63 -72.59 -28.08 -70.84 -29.15C-69.1 -30.22 -67.15 -30.75 -65.01 -30.75C-62.88 -30.75 -60.93 -30.22 -59.19 -29.15C-57.44 -28.08 -56.05 -26.63 -55.04 -24.79C-54.02 -22.96 -53.51 -20.92 -53.51 -18.68C-53.51 -16.48 -54 -14.47 -54.99 -12.65C-55.97 -10.84 -57.33 -9.39 -59.06 -8.32C-60.79 -7.25 -62.71 -6.72 -64.81 -6.72C-66.98 -6.72 -68.96 -7.25 -70.74 -8.32C-72.52 -9.39 -73.93 -10.84 -74.97 -12.68Z M-17.41 -7.33L-14.51 0L-5.96 0L-22.86 -38.95L-23.27 -38.95L-40.17 0L-32.89 0L-29.83 -7.33ZM-19.86 -13.54L-27.24 -13.54L-23.47 -22.66Z M30.37 -1.86C31.85 -2.52 32.87 -3.16 33.45 -3.77L33.45 -19.6L19.5 -19.6L19.5 -12.47L25.97 -12.47L25.97 -7.94C24.85 -7.3 23.13 -6.97 20.82 -6.97C18.41 -6.97 16.27 -7.43 14.38 -8.35C12.5 -9.27 11.03 -10.58 9.98 -12.3C8.93 -14.01 8.4 -16.02 8.4 -18.33C8.4 -22.33 9.48 -25.35 11.63 -27.39C13.79 -29.43 16.9 -30.45 20.98 -30.45C22.13 -30.45 23.56 -30.22 25.28 -29.76C26.99 -29.3 28.34 -28.8 29.33 -28.26L31.72 -35.13C30.19 -35.94 28.43 -36.61 26.42 -37.11C24.42 -37.62 22.28 -37.88 20.01 -37.88C16.48 -37.88 13.25 -37.12 10.34 -35.61C7.42 -34.1 5.09 -31.83 3.36 -28.79C1.63 -25.75 0.76 -22.04 0.76 -17.67C0.76 -14.17 1.58 -11.06 3.21 -8.32C4.84 -5.59 7.15 -3.45 10.16 -1.91C13.16 -0.36 16.65 0.41 20.62 0.41C22.08 0.41 23.7 0.2 25.48 -0.23C27.26 -0.65 28.89 -1.2 30.37 -1.86Z M74.26 -1.86C75.73 -2.52 76.76 -3.16 77.34 -3.77L77.34 -19.6L63.39 -19.6L63.39 -12.47L69.85 -12.47L69.85 -7.94C68.73 -7.3 67.02 -6.97 64.71 -6.97C62.3 -6.97 60.15 -7.43 58.27 -8.35C56.39 -9.27 54.92 -10.58 53.86 -12.3C52.81 -14.01 52.29 -16.02 52.29 -18.33C52.29 -22.33 53.36 -25.35 55.52 -27.39C57.67 -29.43 60.79 -30.45 64.86 -30.45C66.02 -30.45 67.45 -30.22 69.16 -29.76C70.88 -29.3 72.23 -28.8 73.21 -28.26L75.6 -35.13C74.08 -35.94 72.31 -36.61 70.31 -37.11C68.31 -37.62 66.17 -37.88 63.89 -37.88C60.36 -37.88 57.14 -37.12 54.22 -35.61C51.3 -34.1 48.98 -31.83 47.25 -28.79C45.52 -25.75 44.65 -22.04 44.65 -17.67C44.65 -14.17 45.46 -11.06 47.09 -8.32C48.72 -5.59 51.04 -3.45 54.04 -1.91C57.05 -0.36 60.53 0.41 64.51 0.41C65.97 0.41 67.59 0.2 69.37 -0.23C71.15 -0.65 72.78 -1.2 74.26 -1.86Z M120.71 -37.47L111.6 -37.47L103.2 -20.16L94.59 -37.47L85.48 -37.47L99.28 -11.66L99.28 0L106.66 0L106.66 -11.66Z"></path></g><g id="SvgjsG192953" class="text" transform="translate(375.55124008067946, 81.69341558419761) scale(1)" light-content="false" fill="#ffffff"><path d="M-70.55 -33.97C-67.92 -33.97 -64.82 -32.99 -61.27 -31.02L-58.21 -37.19C-60.14 -38.45 -62.12 -39.43 -64.16 -40.11C-66.2 -40.8 -68.73 -41.14 -71.77 -41.14C-75.63 -40.96 -78.71 -39.79 -81.03 -37.64C-83.35 -35.49 -84.5 -32.65 -84.5 -29.13C-84.5 -26.72 -83.94 -24.72 -82.81 -23.13C-81.68 -21.53 -80.33 -20.31 -78.78 -19.46C-77.22 -18.61 -75.28 -17.72 -72.94 -16.79C-68.97 -15.23 -66.99 -13.4 -66.99 -11.29C-66.99 -9.66 -67.62 -8.48 -68.88 -7.76C-70.14 -7.03 -71.62 -6.67 -73.33 -6.67C-74.78 -6.67 -76.41 -7 -78.22 -7.67C-80.04 -8.34 -81.65 -9.19 -83.06 -10.23L-86.62 -3.95C-84.54 -2.46 -82.3 -1.36 -79.89 -0.64C-77.48 0.08 -75.05 0.44 -72.61 0.44C-69.68 0.44 -67.16 -0.08 -65.05 -1.14C-62.93 -2.2 -61.33 -3.62 -60.24 -5.42C-59.14 -7.22 -58.6 -9.17 -58.6 -11.29C-58.6 -13.73 -59.05 -15.75 -59.96 -17.35C-60.87 -18.94 -62.01 -20.19 -63.38 -21.1C-64.75 -22.01 -66.4 -22.81 -68.33 -23.52C-70.7 -24.41 -72.6 -25.34 -74.02 -26.32C-75.45 -27.31 -76.17 -28.45 -76.17 -29.74C-76.17 -31.15 -75.67 -32.21 -74.69 -32.91C-73.71 -33.62 -72.33 -33.97 -70.55 -33.97Z M-10.73 0L-10.73 -40.92L-18.79 -40.92L-18.79 -24.41L-37.08 -24.41L-37.08 -40.92L-45.14 -40.92L-45.14 0L-37.08 0L-37.08 -16.62L-18.79 -16.62L-18.79 0Z M5.7 -30.8C3.83 -27.58 2.89 -24.11 2.89 -20.4C2.89 -16.62 3.83 -13.14 5.7 -9.95C7.57 -6.76 10.1 -4.23 13.29 -2.36C16.47 -0.49 19.96 0.44 23.74 0.44C27.48 0.44 30.96 -0.49 34.16 -2.36C37.37 -4.23 39.93 -6.76 41.84 -9.95C43.74 -13.14 44.7 -16.62 44.7 -20.4C44.7 -24.11 43.74 -27.58 41.84 -30.8C39.93 -34.02 37.37 -36.59 34.16 -38.5C30.96 -40.41 27.48 -41.36 23.74 -41.36C20 -41.36 16.52 -40.41 13.32 -38.5C10.11 -36.59 7.57 -34.02 5.7 -30.8ZM12.93 -13.84C11.8 -15.84 11.23 -18.03 11.23 -20.4C11.23 -22.85 11.79 -25.07 12.9 -27.07C14.01 -29.08 15.52 -30.66 17.43 -31.83C19.34 -33 21.46 -33.58 23.79 -33.58C26.13 -33.58 28.25 -33 30.16 -31.83C32.07 -30.66 33.58 -29.08 34.69 -27.07C35.8 -25.07 36.36 -22.85 36.36 -20.4C36.36 -17.99 35.82 -15.8 34.75 -13.82C33.67 -11.83 32.19 -10.26 30.3 -9.09C28.41 -7.92 26.31 -7.34 24.02 -7.34C21.65 -7.34 19.49 -7.92 17.54 -9.09C15.59 -10.26 14.06 -11.84 12.93 -13.84Z M82.34 -37.22C79.59 -39.69 75.72 -40.92 70.72 -40.92L58.32 -40.92L58.32 0L66.38 0L66.38 -12.95L72.16 -12.95C75.54 -12.95 78.29 -13.64 80.42 -15.01C82.55 -16.38 84.09 -18.13 85.03 -20.26C85.98 -22.4 86.45 -24.68 86.45 -27.13C86.45 -31.39 85.08 -34.76 82.34 -37.22ZM75.78 -21.82C74.85 -21.14 73.63 -20.79 72.11 -20.79L66.38 -20.79L66.38 -33.13L72.16 -33.13C74.61 -33.13 76.26 -32.46 77.11 -31.11C77.96 -29.75 78.39 -28.35 78.39 -26.91C78.39 -26.06 78.19 -25.17 77.78 -24.24C77.37 -23.31 76.7 -22.51 75.78 -21.82Z"></path></g><g id="SvgjsG192954" class="QVvVVqRRyw" transform="translate(211.50766989587555, -9.003265539456168) scale(1.1657730855180868)" light-content="false" fill="#ffffff"><path d="M33.329 27.033c-18.15-.593-14.573 7.76-13.865 10.29-.44-3.278-3.639-10.295 13.865-10.29z"></path><path d="M25.109 26.893c-2.299.229-6.305-2.361-8.604-1.954-.6 2.081.373 4.773 1.672 6.421.372-1.568 2.018-3.966 6.932-4.467zm8.12 15.195c-6.406 7.025-5.873 17.649-5.171 21.269-2.392 2.642-6.226 6.506-9.815 13.112-18.197 5.393-3.606 9.323-9.593 13.194-.736.743 14.831 2.855 9.443-5.086-3.545.572-7.728.308-7.46-2.412-.134-2.38 6.983-4.383 9.918-5.175.934-3.967 6.272-10.992 9.075-13.599-1.469-3.06-1.867-15.1 3.603-21.303m4.13-13.712c4.138 2.719.828 8.447-.248 9.972.995-2.076 3.927-6.576.248-9.972z"></path><path d="M31.505 88.664c-9.057.429-10.31-1.395 1.866-4.732-2.994.354-7.342 1.33-8.418 1.564-5.707 1.253-6.408 4.441.098 5.215 4.347.446 9.26.599 19.473-1.232 5.633-1.288 4.374-7.014-1.946-19.11 7.287 16.363-6.54 17.888-11.073 18.295zM59.54 68.688c1.385.92 2.57 1.883 5.854 1.131l-1.775 4.439c-2.428-.854-3.768-1.855-5.141-3.838l1.062-1.732zm6.734-7.15c-1.238.376-3.613.705-5.475-.498l-.25 4.3c1.859 1.281 3.779.639 5.725-.188v-3.614zm-.795-6.999c-1.508-.226-3.812-.527-5.672.226l.742 3.763c2.395 1.58 4.242.346 5.482-.331l-.552-3.658zm-1.597-7.752c-1.238-.076-4.5-.275-6.094.178l1.045 3.81c2.746 2.333 4.52.075 5.76-.827l-.711-3.161zm-8.506-8.505c1.596-.602 5.051-.527 6.557-.151l.725 3.478c-1.152.904-3.461 3.035-6.475.023l-.807-3.35zm5.492-9.108c-.973.225-4.771 1.869-7.254-.313l.699 5.046c2.393.829 5.227.686 6.912-.066l-.357-4.667zm-6.469-9.559c3.9.602 5.584 1.129 7.533 1.807l-.885 4.215c-1.867 1.411-2.812 2.015-7.537.526l.889-6.548zm.622-2.032c2.127-.601 6.383.453 8.066 1.43l2.479-2.709c-3.01-1.129-5.227-2.634-5.496-5.795-1.729 1.028-4.577 5.409-5.049 7.074zm13.607-9.86c.975 1.732 2.127 4.293 2.039 7.002l-3.061.374c-.709-1.58-.266-2.708-5.674-5.72l6.696-1.656zm6.947 8.33c1.064-1.28 2.045-5.093 2.225-5.845l-4.344-1.731c.266 1.58.682 4.939-.029 6.746l2.148.83zm5.612 3.562c-1.771-2.935 1.664-4.892 3.17-4.892l-2.746-2.182c-.977.978-3.059 1.76-3.592 4.921l3.168 2.153zm10.164 2.012c-3.459-.979-6.213-2.175-4.885 3.921l-1.742-2.014c-4.076-8.054 2.645-5.502 3.885-4.977l2.742 3.07m2.248 2.853c1.434 2.89-1.104 6.294-5.5 2.717 1.109-3.637 2.283-4.969 5.5-2.717M28.297 39.917c.261 2.935-9.005 7.807-11.973 3.475-.958-1.932 6.226-7.338 3.474-8.761 3.934 1.509-1.35 6.75-1.088 7.788.785 1.777 9.036.91 9.587-2.502zm7.924-6.584c4.91-3.864-1.194-7.625-2.273-7.929-3.335 3.333-4.93 4.069-3.83 7.521 3.247-5.862 9.793-5.047 6.103.408z"></path><path d="M56.304 67.806C45.17 57.131 43.5 61.424 41.946 63.256 26.024 83.69 15.249 83.078 12.736 82.874c4.364-.046 22.166-7.974 24.172-27.758 2.007-19.783 16.798 5.617 19.396 12.69z"></path></g></g></g></svg>